# xmcd CD database file
#
# Track frame offsets:
#	150
#	14740
#	26685
#	42120
#	69840
#	82355
#	98215
#	112487
#	127050
#	143552
#	156500
#	169850
#	182000
#	193572
#	206767
#	218705
#	228890
#	242185
#	247967
#	259967
#
# Disc length: 3583 seconds
#
# Revision: 2
# Processed by: cddbd v1.5.1PL2 Copyright (c) Steve Scherf et al.
# Submitted via: CDex 1.51
#
DISCID=2b0dfd14
DTITLE=Lightnin Hopkins,Sonny terry,BJ Williams,BMac Ghee - Rediscovered Blues Disc 2
DYEAR=1900
DGENRE=Blues
TTITLE0=Baby, Please Don't Go
TTITLE1=Twelve Gates To The City
TTITLE2=Pawnshop Blues
TTITLE3=Brownie's Guitar Blues
TTITLE4=Oh Baby
TTITLE5=Hand Me Down My Old Walking Stick
TTITLE6=Shady Grove
TTITLE7=Mama Don't Like Me Runnin' Round
TTITLE8=Sittin' 'N' Thinkin'
TTITLE9=Scardie Mama
TTITLE10=Blues 'Round The World
TTITLE11=Everybody's Gonna Miss Me When I'm Gone
TTITLE12=Pearly Mae
TTITLE13=Baby Keeps On Breaking 'Em Down
TTITLE14=Church Bells Ring
TTITLE15=Take It All
TTITLE16=Toledo To Buffalo
TTITLE17=She'll Be Coming 'Round The Mountain
TTITLE18=Old Folks Tavern
TTITLE19=Baby, Please Don't Go
EXTD=
EXTT0=
EXTT1=
EXTT2=
EXTT3=
EXTT4=
EXTT5=
EXTT6=
EXTT7=
EXTT8=
EXTT9=
EXTT10=
EXTT11=
EXTT12=
EXTT13=
EXTT14=
EXTT15=
EXTT16=
EXTT17=
EXTT18=
EXTT19=
PLAYORDER=
